<?xml version="1.0" encoding="utf-8"?>
<!-- Generator: Adobe Illustrator 20.1.0, SVG Export Plug-In . SVG Version: 6.00 Build 0)  -->
<svg version="1.1" id="Layer_1" xmlns="http://www.w3.org/2000/svg" xmlns:xlink="http://www.w3.org/1999/xlink" x="0px" y="0px"
	 viewBox="0 0 1300 380" style="enable-background:new 0 0 1300 380;" xml:space="preserve">
<style type="text/css">
	.st0{opacity:0.15;}
	.st1{clip-path:url(#SVGID_2_);}
	.st2{fill:#FFFFFF;}
</style>
<title>Circle Patter for Downloads</title>
<g class="st0">
	<g>
		<defs>
			<rect id="SVGID_1_" width="1300" height="380"/>
		</defs>
		<clipPath id="SVGID_2_">
			<use xlink:href="#SVGID_1_"  style="overflow:visible;"/>
		</clipPath>
		<g class="st1">
			<path class="st2" d="M1503.3,312.7c-33.6-79.1-95-143.3-172.5-180.4C1366,99.5,1386,53.6,1386,5.5c0-95.7-77.8-173.5-173.5-173.5
				c-3.6,0-7.2,0.1-10.7,0.3c-8.1-10.5-16.8-20.5-26.2-29.9c-117.9-117.9-309.2-117.9-427.1,0c-52.9,52.6-84.3,123-88,197.6
				c-0.3,5.3-0.4,10.7-0.4,16c0,10.6,0.6,21.2,1.7,31.7C623.9,37.1,585,31.5,545.8,31c-68.5-15.4-139.7-14.7-207.9,2.2
				C301.2-32.8,231.6-73.8,156-74C41.3-74-52,19.3-52,134c0,34.8,8.7,69.1,25.5,99.6C-91.7,250.2-140,309.3-140,379.5
				c0,81,64.3,147.2,144.5,150.4c30.3,209.1,203.1,368.2,413.9,381.3c199.3,55.6,410.9-31.9,512.8-211.9
				c138,136.8,360.8,135.9,497.6-2.1C1529.3,595.9,1558.7,444.1,1503.3,312.7L1503.3,312.7z M1179,797
				c-92.1,0.3-180.6-36.2-245.7-101.4c53-96.2,68.9-208.5,44.7-315.6c-4.8-21.1-11.2-41.8-19-62l-0.8-2l-0.8-2
				c-1.2-3.1-2.5-6.1-3.8-9.2c-11.5-27.1-25.7-53.1-42.3-77.4c6.8-8.1,14-16,21.5-23.6c40.7-40.8,91-70.9,146.3-87.3
				c32.7,39.4,81.2,62.3,132.4,62.5h0.9h1.4h2.5c29.4-0.6,58.2-8.8,83.6-23.7c9.9-5.8,19.2-12.5,27.7-20.1
				c173.6,81.9,247.9,289.1,165.9,462.7C1436.2,719.5,1313.6,797.1,1179,797z M928.3,696.3c-97.6,172.9-297.4,260.7-490.8,215.6
				c3,0.1,5.9,0.1,8.9,0.1c179.4,0,341.4-107.3,411.4-272.4c3.6-8.5,6.9-17,9.9-25.6c0.3-0.9,0.6-1.7,0.9-2.6s0.6-1.7,0.9-2.5
				c33.5-99.2,31.1-207.1-6.9-304.7l-1-2.5l-0.3-0.8l-0.7-1.7l-0.3-0.9l-1-2.4c-0.5-1.2-1-2.4-1.5-3.5
				c-37.8-89-103.4-163.4-187-212.1l-2.2-1.3l-2.4-1.3c-32.1-18.2-66.4-32.3-101.9-42c33.1,1.8,65.9,7.3,97.8,16.3l2.1,0.6l2.1,0.6
				c97.5,29,182.2,90.3,240.1,173.9l1.2,1.7c0.4,0.6,0.8,1.1,1.2,1.7c16.2,23.9,30,49.3,41.3,75.8c1.1,2.5,2.1,5,3.1,7.5l0.8,2
				l0.8,2c7.9,20.2,14.3,41,19.1,62.1c24.4,106,8.9,217.3-43.5,312.6c-0.3,0.6-0.7,1.2-1,1.8L928.3,696.3z M274.3,873.3
				C131.7,813.2,31,683,8.6,530h1.9c28.4,0,56.3-8,80.3-23.3l1.9-1.2c0.6-0.4,1.3-0.8,1.9-1.3C136,476.3,160.8,429.8,161,380
				c0-0.2,0-0.3,0-0.5c0-12.6-1.6-25.2-4.7-37.5C270.8,341.9,364,248.6,364,134c0-20.1-2.9-40.1-8.6-59.4c-0.2-0.7-0.4-1.3-0.6-1.9
				s-0.4-1.3-0.6-1.9c-3.7-11.7-8.5-23-14.3-33.9c61.1-15,124.7-16.9,186.6-5.7c3.2,0.6,6.3,1.2,9.5,1.8s6.3,1.3,9.3,2
				c42.8,9.8,84,25.9,122.1,47.9c0.8,0.5,1.6,1,2.4,1.4l2.3,1.4C753.5,134,817.3,207,854.2,294l0,0c0.3,0.8,0.7,1.6,1,2.4
				s0.7,1.8,1.1,2.6c0.7,1.7,1.3,3.4,2,5.1c0.3,0.9,0.7,1.7,1,2.6s0.7,1.7,1,2.5c8.7,23,15.5,46.6,20.3,70.7
				c14.6,74.6,10,151.6-13.6,223.9c-0.3,0.9-0.6,1.7-0.8,2.6s-0.6,1.8-0.9,2.7c-3.3,9.7-7,19.4-11.1,28.9
				C785,801.8,624.3,908.2,446.5,908c-9.2,0-18.3-0.3-27.4-0.8c-3.1-0.2-6.3-0.4-9.4-0.7s-6.3-0.5-9.6-0.9
				C356.8,901.1,314.4,890.2,274.3,873.3L274.3,873.3z M-136,379.5c0-68.7,47.6-126.5,111.5-142.3l2-0.5l2.1-0.5
				c6.7-1.5,13.6-2.4,20.4-2.9c3.5-0.2,7-0.4,10.5-0.4c17,0,33.9,2.9,49.9,8.8l1.9,0.7l1.9,0.7c26.3,10.5,49.1,28.3,65.6,51.4
				c0.4,0.6,0.9,1.3,1.3,1.9s0.9,1.3,1.3,2c8.1,12.2,14.4,25.5,18.5,39.5c0.2,0.7,0.4,1.3,0.6,2s0.4,1.3,0.5,2
				c3.2,12.3,4.9,24.9,4.9,37.6c0,0.2,0,0.3,0,0.5c-0.2,47.6-23.5,92.2-62.5,119.5c-0.6,0.5-1.3,0.9-1.9,1.3s-1.3,0.9-1.9,1.3
				C66.8,517.7,38.9,526,10.5,526c-0.8,0-1.6,0-2.5,0H6l-2-0.2C-73.8,522.4-136,458.1-136,379.5z M0,2.7C0.8,1.8,1.5,0.9,2.3,0
				c74.2-84.9,203.1-93.6,288-19.4c17.5,15.3,32.2,33.4,43.6,53.7c0.3,0.6,0.7,1.2,1,1.8l1,1.8c5.9,11,10.8,22.6,14.6,34.5
				c0.2,0.7,0.4,1.3,0.6,1.9c0.2,0.7,0.4,1.3,0.6,2c5.5,18.7,8.3,38.1,8.3,57.6c0,112.5-91.5,204-204,204h-0.8
				c-4.5-15.6-11.5-30.4-20.8-43.8c-0.4-0.6-0.9-1.3-1.3-1.9s-0.9-1.2-1.4-1.9c-16.7-22.6-39.3-40.2-65.4-50.7l-1.9-0.7l-1.9-0.7
				c-16.6-6.1-34.3-9.3-52-9.3c-3.5,0-7,0.1-10.5,0.4c-7.6,0.5-15.1,1.6-22.5,3.3C-63.4,158.8-54.5,67.3,0,2.7z M664,16
				c0-5.3,0.1-10.7,0.4-16c3.7-73.4,34.7-142.9,86.8-194.7c116.4-116.4,305.1-116.4,421.4,0c8.6,8.6,16.8,17.8,24.3,27.4
				c-86.6,7.7-155.2,79.4-157.9,167.3c-0.1,1.8-0.1,3.7-0.1,5.5c0,39.1,13.2,77,37.5,107.6c-55.3,16.8-105.6,47-146.4,87.9
				c-7.4,7.3-14.4,15-21.1,22.9c-58.7-84.4-144.5-146.2-243.2-175C664.6,38,664,27,664,16z M1212.5-164C1306-164,1382-88,1382,5.5
				c0,47.6-20,92.9-55.1,125l-1.6,1.4l-1.6,1.4c-7.4,6.4-15.3,12.2-23.7,17.3c-24.5,14.8-52.4,23.2-81.1,24.2l-2.5,0.1h-2.3h-1.7
				c-49.7,0-96.9-21.9-129.1-59.8c-0.5-0.5-0.9-1.1-1.4-1.6s-0.9-1.1-1.4-1.7C1056.3,81.8,1043,44.2,1043,5.5c0-1.8,0-3.7,0.1-5.5
				c2.8-86.7,71-157.2,156.8-163.5l2.4-0.1l2.4-0.1C1207.3-163.9,1209.9-164,1212.5-164z"/>
		</g>
	</g>
</g>
</svg>
