<svg id="Layer_1" data-name="Layer 1" xmlns="http://www.w3.org/2000/svg" viewBox="0 0 79.37 79.37"><defs><style>.cls-1{fill:#94c93d;}.cls-2{fill:#73a441;}.cls-3{fill:#17a8e0;}.cls-4{fill:#0179a1;}.cls-5{fill:#353535;}</style></defs><title>icons-masterfilefinal</title><path class="cls-1" d="M35.06,47.39l.62-.18Z"/><path class="cls-1" d="M33.74,47.83l.62-.22Z"/><path class="cls-1" d="M31.19,48.93l.63-.3Z"/><path class="cls-1" d="M30,49.58l.62-.34Z"/><path class="cls-1" d="M32.45,48.35l.62-.26Z"/><path class="cls-1" d="M36.42,47l.61-.14Z"/><path class="cls-1" d="M37.81,46.71l.6-.1Z"/><path class="cls-1" d="M40.67,46.35l.59,0Z"/><path class="cls-1" d="M42.46,46.28l-.81,0A25.28,25.28,0,0,1,29.86,61.8a25.14,25.14,0,0,0,32.27-6.07A25.16,25.16,0,0,0,42.46,46.28Z"/><path class="cls-1" d="M39.23,46.49l.59-.07Z"/><path class="cls-1" d="M27.69,51.06l.59-.41Z"/><path class="cls-1" d="M25.58,52.76l.51-.44Z"/><path class="cls-1" d="M25.67,58.76l-.14-.13Z"/><path class="cls-1" d="M28.81,50.29l.61-.38Z"/><path class="cls-1" d="M23.67,54.68l.25-.27Z"/><path class="cls-1" d="M24.6,53.7l.43-.41Z"/><path class="cls-1" d="M28,60.59l-.44-.32Z"/><path class="cls-1" d="M26.61,51.88l.56-.43Z"/><path class="cls-1" d="M26.83,59.73l-.23-.19Z"/><path class="cls-2" d="M41.65,46.3h0l-.39,0-.59,0-.85.07-.59.07-.82.12-.6.1-.78.16-.61.14-.74.2-.62.18-.7.23-.62.22-.67.26-.62.26-.63.29-.63.3-.59.31-.62.34-.56.33-.61.38-.53.36-.59.41-.52.39-.56.43-.51.44-.51.44-.55.52-.43.41c-.23.23-.45.47-.67.71l-.25.27q-.46.51-.89,1A26.65,26.65,0,0,0,24.88,58l.64.6.14.13.13.12c.17.15.45.39.8.67l.23.19.7.53.44.32c.5.36,1,.71,1.54,1l.35.21h0A25.28,25.28,0,0,0,41.65,46.3Z"/><path class="cls-3" d="M42.46,14.76a25,25,0,0,0-12.6,3.39,25.28,25.28,0,0,1,11.79,15.5l.72,0h.18a25.16,25.16,0,0,0,19.58-9.45A25.18,25.18,0,0,0,42.46,14.76Z"/><path class="cls-3" d="M24.09,22.74c-.45.48-.89,1-1.3,1.48l0,0h0C23.18,23.74,23.62,23.24,24.09,22.74Z"/><path class="cls-4" d="M29.86,18.15h0l-.16.09h0c-.28.16-.55.33-.83.5a23.61,23.61,0,0,0-3.15,2.39l-.5.47-.34.32-.64.65-.15.16c-.47.5-.91,1-1.3,1.49h0q.42.52.86,1l.36.39c.19.2.37.4.57.6l.43.41.55.52.48.41.55.47.51.4.57.43.54.38.58.39.57.35.59.35.6.33.6.32.63.3.61.28.65.27.62.24.68.24.63.21.7.2.64.17.72.17.65.13.74.13.66.1.76.09.67.06.77,0,.35,0h0A25.28,25.28,0,0,0,29.86,18.15Z"/><path class="cls-5" d="M41.66,46.29h0a6.38,6.38,0,0,1,0-12.64h0a25.17,25.17,0,0,1-18.86-9.43,25.11,25.11,0,0,0,0,31.49A25.18,25.18,0,0,1,41.66,46.29Z"/></svg>