<?xml version="1.0" encoding="utf-8"?>
<!-- Generator: Adobe Illustrator 19.2.1, SVG Export Plug-In . SVG Version: 6.00 Build 0)  -->
<svg version="1.1" id="Layer_1" xmlns="http://www.w3.org/2000/svg" xmlns:xlink="http://www.w3.org/1999/xlink" x="0px" y="0px"
	 viewBox="0 0 40 40" style="enable-background:new 0 0 40 40;" xml:space="preserve">
<style type="text/css">
	.st0{fill:#D0D0D0;}
	.st1{fill:#C3C3C3;}
	.st2{fill:#A6A6A6;}
	.st3{fill:none;}
</style>
<title>logo-menu</title>
<g id="Beats_Grey">
	<path class="st0" d="M5,0.5h14.2c6.3,0,11.4,5.1,11.4,11.4c0,0,0,0,0,0l0,0c0,6.3-5.1,11.4-11.4,11.4c0,0,0,0,0,0H5l0,0V0.5L5,0.5z
		"/>
	<path class="st0" d="M5,16.6h18.5C29.8,16.6,35,21.7,35,28c0,0,0,0,0,0.1l0,0c0,6.3-5.1,11.4-11.4,11.4c0,0,0,0-0.1,0H5l0,0V16.6
		L5,16.6z"/>
	<path class="st1" d="M32.2,20.6c-2.2-2.5-5.3-4-8.7-4H5v10.6h17.2C28.2,27.2,32.5,21,32.2,20.6z"/>
	<path class="st2" d="M19.2,23.4c3.9,0,7.6-2,9.7-5.4c-0.3-0.1-0.5-0.3-0.8-0.4l-0.2-0.1c-0.3-0.1-0.6-0.2-0.8-0.3H27h-0.1
		C26.6,17.1,26.3,17,26,17h-0.1h-0.2c-0.3,0-0.5-0.1-0.8-0.1h-0.2h-0.2c-0.3,0-0.6,0-0.9,0H5v6.8L19.2,23.4z"/>
</g>
<rect x="0" class="st3" width="40" height="40"/>
</svg>
