<?xml version="1.0" encoding="utf-8"?>
<!-- Generator: Adobe Illustrator 19.2.1, SVG Export Plug-In . SVG Version: 6.00 Build 0)  -->
<svg version="1.1" id="Layer_1" xmlns="http://www.w3.org/2000/svg" xmlns:xlink="http://www.w3.org/1999/xlink" x="0px" y="0px"
	 viewBox="0 0 40 40" style="enable-background:new 0 0 40 40;" xml:space="preserve">
<style type="text/css">
	.st0{fill:#D0D0D0;}
	.st1{fill:#C3C3C3;}
	.st2{fill:#A6A6A6;}
	.st3{fill:none;}
</style>
<title>logo-menu</title>
<g id="Kibana_Grey">
	<path class="st0" d="M5.7,15.1c4.9,0,9.8,1.2,14.1,3.6l15-18.2H5.2v14.6L5.7,15.1"/>
	<path class="st0" d="M19.9,18.7L5.2,36.7v2.8h29.6C33.2,30.7,27.7,23.1,19.9,18.7"/>
	<path class="st1" d="M19.9,18.7L5.2,36.7v2.8h5.3l14.3-17.4c0,0-1-0.8-2.3-1.8C21.4,19.6,19.9,18.7,19.9,18.7"/>
	<path class="st2" d="M5.7,15.1H5.2v21.6l14.7-17.9C15.5,16.3,10.7,15.1,5.7,15.1"/>
</g>
<rect x="0" class="st3" width="40" height="40"/>
</svg>
