<?xml version="1.0" encoding="utf-8"?>
<!-- Generator: Adobe Illustrator 19.2.1, SVG Export Plug-In . SVG Version: 6.00 Build 0)  -->
<svg version="1.1" id="Layer_1" xmlns="http://www.w3.org/2000/svg" xmlns:xlink="http://www.w3.org/1999/xlink" x="0px" y="0px"
	 viewBox="0 0 40 40" style="enable-background:new 0 0 40 40;" xml:space="preserve">
<style type="text/css">
	.st0{fill:#3EBEB0;}
	.st1{fill:#35BEEF;}
	.st2{fill:#0086AA;}
	.st3{fill:#F3BD19;}
	.st4{fill:#353535;}
	.st5{fill:#37A595;}
	.st6{fill:none;}
</style>
<title>logo-menu</title>
<g id="ES_Hadoop_Gery">
	<path class="st0" d="M29.8,20L20,29.8l7.9,7.9c2.3,2.3,6.1,2.3,8.5,0l1.3-1.3c2.3-2.3,2.3-6.1,0-8.5L29.8,20z"/>
	<path class="st1" d="M12.1,2.2c-2.3-2.3-6.1-2.3-8.5,0L2.2,3.6c-2.3,2.3-2.3,6.1,0,8.5L20,29.8l9.8-9.8L12.1,2.2z"/>
	<path class="st2" d="M2.2,27.9c-2.3,2.3-2.3,6.1,0,8.5l1.3,1.3c2.3,2.3,6.1,2.3,8.5,0l7.9-7.9L10.2,20L2.2,27.9z"/>
	<path class="st3" d="M37.8,12.1c2.3-2.3,2.3-6.1,0-8.5l-1.3-1.3c-2.3-2.3-6.1-2.3-8.5,0L20,10.2l9.8,9.8L37.8,12.1z"/>
	<path class="st4" d="M20,14.5c-4.9,0-9.8,5.5-9.8,5.5l9.8,9.8l9.8-9.8C29.8,20,24.9,14.5,20,14.5z"/>
	<rect x="19.2" y="24.4" transform="matrix(0.706 -0.7082 0.7082 0.706 -10.8396 26.1897)" class="st5" width="13.9" height="3.5"/>
</g>
<rect class="st6" width="40" height="40"/>
</svg>
