<?xml version="1.0" encoding="utf-8"?>
<!-- Generator: Adobe Illustrator 19.2.1, SVG Export Plug-In . SVG Version: 6.00 Build 0)  -->
<svg version="1.1" id="Layer_1" xmlns="http://www.w3.org/2000/svg" xmlns:xlink="http://www.w3.org/1999/xlink" x="0px" y="0px"
	 viewBox="0 0 40 40" style="enable-background:new 0 0 40 40;" xml:space="preserve">
<style type="text/css">
	.st0{fill:#F0BF1A;}
	.st1{fill:#3EBEB0;}
	.st2{fill:#07A5DE;}
	.st3{fill:#231F20;}
	.st4{fill:#D7A229;}
	.st5{fill:#019B8F;}
	.st6{fill:none;}
</style>
<title>logo-menu</title>
<g id="ES_Hadoop_Gery">
	<path class="st0" d="M37.5,8.1c-5.9-7.8-16.8-9.9-25.2-5c2.9,2.2,5.2,5,6.6,8.3h11.5C33.1,11.4,35.7,10.2,37.5,8.1z"/>
	<path class="st0" d="M4.7,10.9L5,10.5L4.7,10.9z"/>
	<path class="st0" d="M5.8,9.2l0.1-0.1L5.8,9.2z"/>
	<path class="st0" d="M6.9,7.7l0.2-0.2L6.9,7.7z"/>
	<path class="st0" d="M9.4,5.1l0.2-0.2L9.4,5.1z"/>
	<path class="st0" d="M11.1,3.8L11.1,3.8L11.1,3.8z"/>
	<path class="st0" d="M8.1,6.4l0.3-0.3L8.1,6.4z"/>
	<path class="st1" d="M7.6,33.1c-0.4-0.5-0.8-1-1.2-1.5C6.8,32.2,7.2,32.6,7.6,33.1z"/>
	<path class="st1" d="M11.4,36.3c-0.3-0.2-0.6-0.4-0.9-0.6C10.8,36,11.1,36.2,11.4,36.3z"/>
	<path class="st1" d="M6,31.1c-0.2-0.3-0.3-0.5-0.5-0.8C5.6,30.6,5.8,30.9,6,31.1z"/>
	<path class="st1" d="M8.7,34.3C8.5,34,8.2,33.8,8,33.6C8.2,33.8,8.5,34,8.7,34.3z"/>
	<path class="st1" d="M5.1,29.7c-0.2-0.3-0.3-0.5-0.4-0.8C4.8,29.1,4.9,29.4,5.1,29.7z"/>
	<path class="st1" d="M10,35.4c-0.3-0.2-0.5-0.4-0.8-0.7C9.5,34.9,9.7,35.1,10,35.4z"/>
	<path class="st1" d="M30.5,28.5H19.2c-1.4,3.4-3.6,6.3-6.4,8.6c-0.3-0.2-0.6-0.4-0.9-0.6c8.5,5.3,19.6,3.2,25.7-4.8
		C35.7,29.7,33.2,28.5,30.5,28.5z"/>
	<path class="st2" d="M19.6,25.5h8.5c3,0,5.5-2.5,5.5-5.5s-2.5-5.5-5.5-5.5h-8.6c0.5,1.8,0.7,3.7,0.7,5.5
		C20.2,21.8,20,23.7,19.6,25.5z"/>
	<path class="st3" d="M20.2,20c0-1.8-0.2-3.7-0.7-5.5H3.3c-1.1,3.6-1.1,7.4,0,11h16.3C20,23.7,20.2,21.9,20.2,20z"/>
	<path class="st4" d="M7.1,7.5c0.3-0.4,0.7-0.7,1-1.1C7.7,6.7,7.4,7.1,7.1,7.5z"/>
	<path class="st4" d="M5.8,9.1c0.3-0.5,0.7-1,1.1-1.4C6.5,8.1,6.2,8.6,5.8,9.1z"/>
	<path class="st4" d="M4.5,11.4L4.5,11.4c0.1-0.2,0.2-0.3,0.2-0.5C4.7,11.1,4.6,11.3,4.5,11.4z"/>
	<path class="st4" d="M5,10.5c0.2-0.4,0.5-0.9,0.8-1.3C5.5,9.6,5.2,10.1,5,10.5z"/>
	<path class="st4" d="M12.2,3.1c-0.4,0.2-0.7,0.4-1.1,0.7C11.5,3.6,11.9,3.4,12.2,3.1L12.2,3.1z"/>
	<path class="st4" d="M8.4,6.1c0.3-0.3,0.7-0.7,1.1-1C9.1,5.4,8.7,5.7,8.4,6.1z"/>
	<path class="st4" d="M9.7,4.9c0.5-0.4,0.9-0.7,1.4-1.1C10.6,4.2,10.1,4.5,9.7,4.9z"/>
	<path class="st4" d="M12.2,3.2c-0.4,0.2-0.7,0.4-1.1,0.7h-0.1c-0.5,0.3-1,0.7-1.4,1.1L9.4,5.1c-0.4,0.3-0.7,0.6-1.1,1L8.1,6.3
		c-0.3,0.4-0.7,0.7-1,1.1L6.9,7.6C6.5,8.1,6.2,8.6,5.9,9.1L5.8,9.2C5.5,9.6,5.2,10.1,5,10.5l-0.2,0.4c-0.1,0.2-0.2,0.3-0.2,0.5h14.4
		C17.4,8.2,15.1,5.3,12.2,3.2z"/>
	<path class="st5" d="M8,33.6l-0.4-0.5C7.7,33.3,7.9,33.4,8,33.6z"/>
	<path class="st5" d="M6.4,31.6c-0.1-0.2-0.3-0.4-0.4-0.5C6.1,31.3,6.2,31.5,6.4,31.6z"/>
	<path class="st5" d="M8.7,34.3l0.5,0.4L8.7,34.3z"/>
	<path class="st5" d="M4.5,28.5L4.5,28.5l0.2,0.3L4.5,28.5L4.5,28.5z"/>
	<path class="st5" d="M11.8,36.6l-0.4-0.3L11.8,36.6z"/>
	<polygon class="st5" points="19.2,28.5 19.2,28.5 4.5,28.5 4.5,28.5 	"/>
	<path class="st5" d="M5.5,30.3c-0.1-0.2-0.3-0.4-0.4-0.7C5.2,29.9,5.3,30.1,5.5,30.3z"/>
	<path class="st5" d="M10.5,35.7L10,35.4L10.5,35.7z"/>
	<path class="st5" d="M10,35.4l0.5,0.4c0.3,0.2,0.6,0.4,0.9,0.6l0.4,0.3c0.3,0.2,0.6,0.4,0.9,0.6c2.8-2.3,5-5.3,6.4-8.6H4.5l0.2,0.3
		c0.1,0.3,0.3,0.5,0.4,0.8s0.3,0.4,0.4,0.7s0.3,0.5,0.5,0.8s0.3,0.4,0.4,0.5c0.4,0.5,0.8,1,1.2,1.5L8,33.6c0.2,0.2,0.5,0.5,0.7,0.7
		l0.5,0.4C9.5,34.9,9.7,35.1,10,35.4z"/>
</g>
<rect x="0" class="st6" width="40" height="40"/>
</svg>
