<?xml version="1.0" encoding="utf-8"?>
<!-- Generator: Adobe Illustrator 19.2.1, SVG Export Plug-In . SVG Version: 6.00 Build 0)  -->
<svg version="1.1" id="Layer_1" xmlns="http://www.w3.org/2000/svg" xmlns:xlink="http://www.w3.org/1999/xlink" x="0px" y="0px"
	 viewBox="0 0 40 40" style="enable-background:new 0 0 40 40;" xml:space="preserve">
<style type="text/css">
	.st0{fill:#444444;}
	.st1{fill:#D0D0D0;}
	.st2{fill:#8C8C8C;}
	.st3{fill:#777777;}
	.st4{fill:#C3C3C3;}
	.st5{fill:#A6A6A6;}
	.st6{fill:none;}
</style>
<title>logo-menu</title>
<g id="Clud_Grey">
	<path class="st0" d="M22.7,25.2L22.7,25.2z"/>
	<path class="st1" d="M22.7,14.8c5.8,0,11.2-3.2,14.1-8.2c-6.1-6.4-15.7-7.9-23.5-3.7C18,5.4,21.4,9.7,22.7,14.8z"/>
	<path class="st2" d="M21.1,14.7L21.1,14.7z"/>
	<path class="st1" d="M22.7,25.2c-1.4,5.1-4.8,9.4-9.4,11.9c7.7,4.3,17.4,2.8,23.5-3.6C33.9,28.3,28.5,25.2,22.7,25.2z"/>
	<polygon class="st2" points="22.7,25.2 22.7,25.2 22.7,25.2 	"/>
	<path class="st2" d="M17.9,25.9L17.9,25.9L17.9,25.9z"/>
	<path class="st2" d="M21.2,25.3h-0.3H21.2z"/>
	<path class="st3" d="M22.7,14.8L22.7,14.8c-0.5,0-1.1,0-1.6-0.1C21.6,14.8,22.2,14.8,22.7,14.8z"/>
	<path class="st4" d="M13.4,2.9L13.4,2.9L13.4,2.9c-0.5,0.3-1,0.6-1.5,0.9l-0.2,0.1c-0.4,0.3-0.9,0.6-1.3,1l-0.2,0.2
		C9.8,5.4,9.4,5.8,9,6.2L8.9,6.3L8.6,6.5c2.5,4.6,7.2,7.6,12.4,8.2h0.1c0.5,0.1,1,0.1,1.6,0.1l0,0C21.3,9.7,17.9,5.4,13.4,2.9z"/>
	<polygon class="st3" points="22.7,25.2 22.7,25.2 22.7,25.2 	"/>
	<path class="st5" d="M22.7,14.8L22.7,14.8c-0.5,0-1.1,0-1.6-0.1H21c-5.2-0.6-9.8-3.6-12.4-8.2L8.6,6.6c-7.2,7.5-7.2,19.3,0,26.9
		l0,0c2-3.6,5.3-6.3,9.2-7.5h0.1c1-0.3,2-0.5,3-0.6h0.3c0.5,0,1-0.1,1.5-0.1l0,0c-2.9,0.1-5.3-2.1-5.4-5s2.1-5.3,5-5.4
		C22.4,14.9,22.5,14.9,22.7,14.8L22.7,14.8z"/>
	<path class="st3" d="M21.2,25.3c0.5,0,1-0.1,1.5-0.1l0,0C22.2,25.2,21.7,25.2,21.2,25.3z"/>
	<path class="st4" d="M22.7,25.2L22.7,25.2c-0.5,0-1,0-1.5,0.1h-0.3c-1,0.1-2,0.3-3,0.6h-0.1c-3.9,1.3-7.2,4-9.2,7.6l0.1,0.1
		c0.2,0.2,0.4,0.4,0.6,0.6l0.6,0.6l0.7,0.5l0.6,0.5c0.2,0.2,0.5,0.3,0.7,0.5s0.4,0.3,0.6,0.4s0.4,0.3,0.7,0.4
		C17.9,34.5,21.3,30.2,22.7,25.2z"/>
</g>
<rect x="0" class="st6" width="40" height="40"/>
</svg>
