<?xml version="1.0" encoding="utf-8"?>
<!-- Generator: Adobe Illustrator 19.2.1, SVG Export Plug-In . SVG Version: 6.00 Build 0)  -->
<svg version="1.1" id="Layer_1" xmlns="http://www.w3.org/2000/svg" xmlns:xlink="http://www.w3.org/1999/xlink" x="0px" y="0px"
	 viewBox="0 0 40 40" style="enable-background:new 0 0 40 40;" xml:space="preserve">
<style type="text/css">
	.st0{fill:#353535;}
	.st1{fill:#07A5DE;}
	.st2{fill:#93C90E;}
	.st3{fill:#0078A0;}
	.st4{fill:#74A300;}
	.st5{fill:none;}
</style>
<title>logo-menu</title>
<g id="ES_Hadoop_Gery">
	<path class="st0" d="M22.7,14.8L22.7,14.8z"/>
	<path class="st0" d="M9.4,32.2c0.2-0.3,0.4-0.6,0.7-0.9l0.2-0.2c0.3-0.3,0.6-0.7,0.9-1l0.2-0.2c0.3-0.3,0.6-0.5,0.8-0.8l0.3-0.2
		c0.4-0.3,0.7-0.6,1.1-0.8l0.2-0.1c0.3-0.2,0.7-0.4,1-0.6l0.3-0.2c0.4-0.2,0.8-0.4,1.2-0.6l0.2-0.1c0.4-0.1,0.7-0.3,1.1-0.4l0.4-0.1
		c0.4-0.1,0.9-0.2,1.3-0.4h0.2c0.4-0.1,0.8-0.1,1.2-0.2h0.4c0.4,0,0.9-0.1,1.3-0.1h0.1c-2.9-0.1-5.1-2.5-5-5.4
		c0.1-2.7,2.2-4.9,4.9-5c-5.8,0-11.2-3.2-14-8.2c-7.2,7.5-7.2,19.3,0,26.8c0.2-0.4,0.4-0.7,0.6-1L9.4,32.2z"/>
	<path class="st0" d="M22.7,25.2L22.7,25.2z"/>
	<path class="st1" d="M22.7,14.8c5.8,0,11.2-3.2,14.1-8.2c-6.1-6.4-15.7-7.9-23.4-3.7C18,5.4,21.4,9.7,22.7,14.8z"/>
	<path class="st1" d="M22.7,14.8L22.7,14.8C21.3,9.7,18,5.4,13.4,2.9l0,0C18,5.4,21.3,9.7,22.7,14.8z"/>
	<path class="st1" d="M10,5.2l0.5-0.4L10,5.2z"/>
	<path class="st1" d="M11.5,4l0.4-0.3L11.5,4z"/>
	<path class="st1" d="M8.8,6.4l0.5-0.5L8.8,6.4z"/>
	<path class="st2" d="M22.7,25.2L22.7,25.2v0.1c-0.1,0.5-0.3,1-0.5,1.5c0,0.1-0.1,0.2-0.1,0.4c-0.2,0.5-0.4,1-0.6,1.4l-0.2,0.3
		c-0.2,0.5-0.5,0.9-0.8,1.4l-0.2,0.3c-0.3,0.4-0.6,0.9-0.9,1.3l-0.2,0.3c-0.3,0.4-0.7,0.8-1,1.2l-0.2,0.3c-0.4,0.4-0.8,0.7-1.2,1.1
		l-0.2,0.2c-0.4,0.4-0.9,0.7-1.3,1L15,36c-0.5,0.4-1.1,0.7-1.6,1c7.7,4.3,17.4,2.8,23.5-3.6C34,28.3,28.6,25.2,22.7,25.2z"/>
	<path class="st2" d="M20.5,30.3c0.3-0.4,0.5-0.9,0.8-1.4C21,29.4,20.7,29.9,20.5,30.3z"/>
	<path class="st2" d="M16.6,26.4l-0.2,0.1L16.6,26.4z"/>
	<path class="st2" d="M19.6,25.5h-0.2H19.6z"/>
	<path class="st2" d="M14.9,36.1c-0.5,0.4-1.1,0.7-1.6,1l0,0C13.9,36.8,14.4,36.4,14.9,36.1z"/>
	<path class="st2" d="M12.5,28.8L12.3,29L12.5,28.8z"/>
	<path class="st2" d="M15.1,27.1l-0.3,0.2L15.1,27.1z"/>
	<path class="st2" d="M13.8,27.8L13.6,28L13.8,27.8z"/>
	<path class="st2" d="M15.1,35.9c0.4-0.3,0.9-0.7,1.3-1C16,35.3,15.6,35.6,15.1,35.9z"/>
	<path class="st2" d="M21.4,28.6c0.2-0.5,0.5-1,0.6-1.4C21.9,27.6,21.6,28.1,21.4,28.6z"/>
	<path class="st2" d="M19.4,31.9c0.3-0.4,0.6-0.8,0.9-1.3C20,31,19.7,31.5,19.4,31.9z"/>
	<path class="st2" d="M18.1,33.3c0.4-0.4,0.7-0.8,1-1.2C18.8,32.6,18.5,33,18.1,33.3z"/>
	<path class="st2" d="M22.2,26.8c0.2-0.5,0.4-1,0.5-1.5C22.5,25.8,22.4,26.3,22.2,26.8z"/>
	<path class="st2" d="M21.3,25.3h-0.4H21.3z"/>
	<path class="st2" d="M11.9,36.2L11.6,36L11.9,36.2z"/>
	<path class="st2" d="M18.1,25.9L17.7,26L18.1,25.9z"/>
	<path class="st2" d="M11.2,30l0.2-0.2L11.2,30z"/>
	<path class="st2" d="M10.3,31l-0.2,0.2L10.3,31z"/>
	<path class="st2" d="M10.5,35.2l-0.4-0.3L10.5,35.2z"/>
	<path class="st2" d="M17.9,33.6c-0.4,0.4-0.8,0.7-1.2,1.1C17.1,34.3,17.5,34,17.9,33.6z"/>
	<path class="st2" d="M22.7,25.2L22.7,25.2z"/>
	<path class="st2" d="M9.2,34l-0.4-0.4L9.2,34z"/>
	<path class="st2" d="M9.4,32.2l-0.2,0.2L9.4,32.2z"/>
	<path class="st3" d="M8.8,6.4L8.6,6.6l0,0l0,0L8.8,6.4z"/>
	<path class="st3" d="M9.2,5.9C9.5,5.7,9.8,5.4,10,5.2C9.8,5.5,9.5,5.7,9.2,5.9z"/>
	<path class="st3" d="M22.7,14.8L22.7,14.8z"/>
	<path class="st3" d="M13.3,2.9c-0.5,0.3-1,0.6-1.4,0.9C12.4,3.5,12.8,3.2,13.3,2.9z"/>
	<path class="st3" d="M10.5,4.8c0.3-0.3,0.7-0.5,1-0.8C11.2,4.3,10.9,4.5,10.5,4.8z"/>
	<polygon class="st3" points="22.7,14.8 22.7,14.8 22.7,14.8 	"/>
	<path class="st3" d="M22.6,14.8L22.6,14.8c-5.8,0-11.1-3.2-14-8.3l0,0C11.5,11.6,16.8,14.8,22.6,14.8z"/>
	<path class="st3" d="M22.7,14.8L22.7,14.8c-1.4-5.1-4.8-9.4-9.4-11.9c-0.5,0.3-1,0.6-1.4,0.9L11.5,4c-0.3,0.2-0.7,0.5-1,0.8L10,5.2
		C9.7,5.5,9.5,5.7,9.2,5.9L8.7,6.4L8.6,6.6C11.5,11.7,16.9,14.8,22.7,14.8z"/>
	<path class="st4" d="M8.6,33.4L8.6,33.4l0.2,0.2L8.6,33.4L8.6,33.4z"/>
	<path class="st4" d="M11.6,36c-0.4-0.3-0.7-0.5-1.1-0.8C10.8,35.5,11.2,35.7,11.6,36z"/>
	<path class="st4" d="M13.3,37.1L13.3,37.1c-0.5-0.3-1-0.5-1.4-0.9C12.3,36.5,12.8,36.8,13.3,37.1z"/>
	<path class="st4" d="M10.1,34.8c-0.3-0.3-0.6-0.5-0.9-0.8C9.5,34.3,9.8,34.6,10.1,34.8z"/>
	<path class="st4" d="M20.8,25.3c-0.4,0-0.8,0.1-1.2,0.2C20,25.4,20.4,25.4,20.8,25.3z"/>
	<path class="st4" d="M13.6,28c-0.4,0.3-0.7,0.5-1.1,0.8C12.9,28.5,13.2,28.2,13.6,28z"/>
	<path class="st4" d="M14.8,27.2c-0.3,0.2-0.7,0.4-1,0.6C14.2,27.6,14.5,27.4,14.8,27.2z"/>
	<path class="st4" d="M16.4,26.5c-0.4,0.2-0.8,0.4-1.2,0.6C15.5,26.9,15.9,26.7,16.4,26.5z"/>
	<path class="st4" d="M17.7,26c-0.4,0.1-0.8,0.3-1.1,0.4C16.9,26.2,17.3,26.1,17.7,26z"/>
	<path class="st4" d="M12.3,29c-0.3,0.2-0.6,0.5-0.8,0.8C11.7,29.5,12,29.3,12.3,29z"/>
	<path class="st4" d="M9.2,32.4c-0.2,0.3-0.4,0.7-0.6,1l0,0C8.8,33.1,9,32.7,9.2,32.4z"/>
	<path class="st4" d="M10.3,31c0.3-0.3,0.6-0.7,0.9-1C10.9,30.3,10.6,30.6,10.3,31z"/>
	<path class="st4" d="M10.1,31.2c-0.2,0.3-0.5,0.6-0.7,0.9C9.6,31.8,9.9,31.5,10.1,31.2z"/>
	<path class="st4" d="M19.4,25.5c-0.5,0.1-0.9,0.2-1.3,0.4C18.5,25.7,19,25.6,19.4,25.5z"/>
	<path class="st4" d="M22.6,25.2c-0.5,0-0.9,0-1.3,0.1C21.7,25.2,22.1,25.2,22.6,25.2z"/>
	<path class="st4" d="M22.7,25.2v0.1V25.2z"/>
	<path class="st4" d="M21.2,28.9l0.2-0.3L21.2,28.9z"/>
	<path class="st4" d="M18.1,33.3l-0.2,0.3L18.1,33.3z"/>
	<path class="st4" d="M19.1,32.2l0.2-0.3L19.1,32.2z"/>
	<path class="st4" d="M22,27.2c0-0.1,0.1-0.2,0.1-0.4C22.1,26.9,22.1,27,22,27.2z"/>
	<path class="st4" d="M14.9,36.1l0.2-0.2L14.9,36.1z"/>
	<path class="st4" d="M20.3,30.6l0.2-0.3L20.3,30.6z"/>
	<path class="st4" d="M16.5,34.9l0.2-0.2L16.5,34.9z"/>
	<path class="st4" d="M15.1,35.9c0.4-0.3,0.9-0.7,1.3-1l0.2-0.2c0.4-0.3,0.8-0.7,1.2-1.1l0.2-0.3c0.4-0.4,0.7-0.8,1-1.2l0.2-0.3
		c0.3-0.4,0.6-0.8,0.9-1.3l0.2-0.3c0.3-0.4,0.5-0.9,0.8-1.4l0.2-0.3c0.2-0.5,0.5-1,0.6-1.4c0-0.1,0.1-0.2,0.1-0.4
		c0.2-0.5,0.4-1,0.5-1.5v-0.1h-0.1c-0.5,0-0.9,0-1.3,0.1h-0.4c-0.4,0-0.8,0.1-1.2,0.2h-0.2c-0.5,0.1-0.9,0.2-1.3,0.4L17.7,26
		c-0.4,0.1-0.8,0.3-1.1,0.4l-0.2,0.1c-0.4,0.2-0.8,0.4-1.2,0.6l-0.3,0.2c-0.3,0.2-0.7,0.4-1,0.6L13.6,28c-0.4,0.3-0.7,0.5-1.1,0.8
		L12.3,29c-0.3,0.2-0.6,0.5-0.8,0.8L11.2,30c-0.3,0.3-0.6,0.7-0.9,1l-0.2,0.2c-0.2,0.3-0.5,0.6-0.7,0.9l-0.2,0.2
		c-0.2,0.3-0.4,0.7-0.6,1l0.2,0.2L9.2,34c0.3,0.3,0.6,0.6,0.9,0.8l0.4,0.3c0.4,0.3,0.7,0.6,1.1,0.8l0.3,0.2c0.5,0.3,0.9,0.6,1.4,0.9
		c0.6-0.3,1.1-0.6,1.6-1L15.1,35.9z"/>
</g>
<rect x="0" class="st5" width="40" height="40"/>
</svg>
